<svg width="16" height="16" viewBox="0 0 16 16" fill="none" xmlns="http://www.w3.org/2000/svg">
<path d="M13.8045 6H2.19547C1.57248 6 1.10114 6.56347 1.2112 7.17666L2.46761 14.1767C2.55314 14.6532 2.96774 15 3.45188 15H12.5481C13.0323 15 13.4469 14.6532 13.5324 14.1767L14.7888 7.17666C14.8989 6.56348 14.4275 6 13.8045 6Z" stroke="#202020" stroke-width="1.8" stroke-linejoin="round"/>
<path d="M11 5C11 4.20435 10.6839 3.44129 10.1213 2.87868C9.55871 2.31607 8.79565 2 8 2C7.20435 2 6.44129 2.31607 5.87868 2.87868C5.31607 3.44129 5 4.20435 5 5" stroke="#202020" stroke-width="1.8" stroke-linecap="square" stroke-linejoin="round"/>
</svg>
