<svg width="22" height="15" viewBox="0 0 22 15" xmlns="http://www.w3.org/2000/svg">
<path d="M11 1.03894C7.17879 1.03894 3.71351 2.98369 1.15649 6.14247C0.947837 6.40126 0.947837 6.76281 1.15649 7.0216C3.71351 10.1842 7.17879 12.1289 11 12.1289C14.8212 12.1289 18.2865 10.1842 20.8435 7.02541C21.0522 6.76662 21.0522 6.40507 20.8435 6.14628C18.2865 2.98369 14.8212 1.03894 11 1.03894ZM11.2741 10.4887C8.73755 10.6371 6.64284 8.69233 6.80239 6.32895C6.93331 4.3804 8.63118 2.80101 10.7259 2.67923C13.2625 2.5308 15.3572 4.47555 15.1976 6.83893C15.0626 8.78367 13.3647 10.3631 11.2741 10.4887ZM11.1473 8.68472C9.78081 8.76464 8.65163 7.71806 8.74164 6.44693C8.81119 5.39654 9.72763 4.54786 10.8568 4.47935C12.2233 4.39943 13.3525 5.44602 13.2625 6.71714C13.1888 7.77134 12.2724 8.62003 11.1473 8.68472Z"/>
<path d="M1 2L21 14" stroke="white"/>
<path d="M1 1L21 13" stroke="black"/>
</svg>
