<svg width="20" height="12" viewBox="0 0 20 12" xmlns="http://www.w3.org/2000/svg">
<path d="M10 0.0390625C6.17879 0.0390625 2.71351 1.98381 0.15649 5.14259C-0.0521632 5.40139 -0.0521632 5.76293 0.15649 6.02173C2.71351 9.18432 6.17879 11.1291 10 11.1291C13.8212 11.1291 17.2865 9.18432 19.8435 6.02553C20.0522 5.76674 20.0522 5.40519 19.8435 5.1464C17.2865 1.98381 13.8212 0.0390625 10 0.0390625ZM10.2741 9.48878C7.73755 9.6372 5.64284 7.69246 5.80239 5.32908C5.93331 3.38052 7.63118 1.80113 9.72589 1.67935C12.2625 1.53092 14.3572 3.47567 14.1976 5.83905C14.0626 7.78379 12.3647 9.36319 10.2741 9.48878ZM10.1473 7.68484C8.78081 7.76477 7.65163 6.71818 7.74164 5.44706C7.81119 4.39666 8.72763 3.54798 9.85681 3.47947C11.2233 3.39955 12.3525 4.44614 12.2625 5.71727C12.1888 6.77146 11.2724 7.62015 10.1473 7.68484Z"/>
</svg>
