<svg width="15" height="16" viewBox="0 0 15 16" fill="none" xmlns="http://www.w3.org/2000/svg">
<path d="M3.95241 8.52159H5.59664V15.7419C5.59664 15.8845 5.70492 16 5.83857 16H8.62643C8.76009 16 8.86837 15.8845 8.86837 15.7419V8.55562H10.7586C10.8815 8.55562 10.9849 8.45725 10.9989 8.32703L11.286 5.66888C11.2939 5.59575 11.2722 5.5225 11.2263 5.46763C11.1804 5.41272 11.1147 5.38128 11.0457 5.38128H8.86849V3.715C8.86849 3.21272 9.12202 2.958 9.62218 2.958C9.69346 2.958 11.0457 2.958 11.0457 2.958C11.1794 2.958 11.2876 2.84244 11.2876 2.69994V0.259969C11.2876 0.117406 11.1794 0.00190625 11.0457 0.00190625H9.08385C9.07002 0.0011875 9.03929 0 8.99399 0C8.65359 0 7.47038 0.0712812 6.53572 0.988437C5.50014 2.00481 5.6441 3.22172 5.6785 3.43272V5.38122H3.95238C3.81873 5.38122 3.71045 5.49672 3.71045 5.63928V8.2635C3.71048 8.40603 3.81876 8.52159 3.95241 8.52159Z" fill="#202020"/>
</svg>
