<svg width="16" height="15" viewBox="0 0 16 15" fill="none" xmlns="http://www.w3.org/2000/svg">
<path d="M1 4.78107L16 4.78107" stroke="#202020" stroke-width="1.8"/>
<path d="M3 6.78107C3.39556 6.78107 3.78224 6.66377 4.11114 6.44401C4.44004 6.22424 4.69639 5.91189 4.84776 5.54643C4.99914 5.18098 5.03874 4.77885 4.96157 4.39089C4.8844 4.00292 4.69392 3.64656 4.41422 3.36685C4.13451 3.08715 3.77814 2.89667 3.39018 2.8195C3.00222 2.74233 2.60009 2.78193 2.23464 2.93331C1.86918 3.08468 1.55682 3.34103 1.33706 3.66993C1.1173 3.99883 1 4.3855 1 4.78107C1 5.04371 1.05173 5.30378 1.15224 5.54643C1.25275 5.78908 1.40007 6.00956 1.58579 6.19528C1.7715 6.381 1.99198 6.52832 2.23464 6.62883C2.47729 6.72934 2.73736 6.78107 3 6.78107Z" fill="white" stroke="#202020" stroke-width="1.8" stroke-linecap="round" stroke-linejoin="round"/>
<path d="M0 10.7811L15 10.7811" stroke="#202020" stroke-width="1.8"/>
<path d="M13 12.7811C13.3956 12.7811 13.7822 12.6638 14.1111 12.444C14.44 12.2242 14.6964 11.9119 14.8478 11.5464C14.9991 11.181 15.0387 10.7788 14.9616 10.3909C14.8844 10.0029 14.6939 9.64656 14.4142 9.36685C14.1345 9.08715 13.7781 8.89667 13.3902 8.8195C13.0022 8.74233 12.6001 8.78193 12.2346 8.93331C11.8692 9.08468 11.5568 9.34103 11.3371 9.66993C11.1173 9.99883 11 10.3855 11 10.7811C11 11.0437 11.0517 11.3038 11.1522 11.5464C11.2528 11.7891 11.4001 12.0096 11.5858 12.1953C11.7715 12.381 11.992 12.5283 12.2346 12.6288C12.4773 12.7293 12.7374 12.7811 13 12.7811Z" fill="white" stroke="#202020" stroke-width="1.8" stroke-linecap="round" stroke-linejoin="round"/>
</svg>
