<svg width="12" height="12" viewBox="0 0 12 12" fill="none" xmlns="http://www.w3.org/2000/svg">
<path d="M2.65945 7.25174L2.24175 8.81108L0.715055 8.84338C0.258797 7.99712 0 7.0289 0 5.99999C0 5.00504 0.241969 4.06679 0.670875 3.24065H0.671203L2.03039 3.48983L2.6258 4.84087C2.50118 5.20417 2.43326 5.59417 2.43326 5.99999C2.4333 6.44043 2.51309 6.86242 2.65945 7.25174Z" fill="#202020"/>
<path d="M11.8951 4.87912C11.964 5.24207 11.9999 5.61691 11.9999 6C11.9999 6.42956 11.9548 6.84857 11.8687 7.25275C11.5766 8.62814 10.8135 9.82912 9.75621 10.679L9.75588 10.6787L8.04391 10.5913L7.80162 9.07879C8.50315 8.66737 9.0514 8.02352 9.3402 7.25275H6.13184V4.87912H9.387H11.8951Z" fill="#202020"/>
<path d="M9.75523 10.6787L9.75556 10.679C8.72733 11.5055 7.42116 12 5.9993 12C3.71436 12 1.72777 10.7228 0.714355 8.8434L2.65875 7.25175C3.16545 8.60405 4.46996 9.5667 5.9993 9.5667C6.65665 9.5667 7.2725 9.389 7.80094 9.07878L9.75523 10.6787Z" fill="#202020"/>
<path d="M9.82883 1.38131L7.88509 2.97263C7.33817 2.63077 6.69167 2.43328 5.99905 2.43328C4.43509 2.43328 3.10618 3.44009 2.62487 4.84088L0.67025 3.24066H0.669922C1.6685 1.31538 3.68014 0 5.99905 0C7.45487 0 8.7897 0.518578 9.82883 1.38131Z" fill="#202020"/>
</svg>
