<svg width="69" height="23" viewBox="0 0 69 23" fill="none" xmlns="http://www.w3.org/2000/svg">
<path d="M58.8038 15.1293C59.7707 16.0913 60.9134 16.616 62.3197 16.616C63.7261 16.616 64.8688 16.0913 65.8357 15.1293C66.8025 14.1673 67.242 12.943 67.242 11.6312C67.242 10.2319 66.8025 9.09506 65.8357 8.13308C64.8688 7.1711 63.7261 6.64639 62.3197 6.64639C60.9134 6.64639 59.7707 7.1711 58.8038 8.13308C57.8369 9.09506 57.3974 10.3194 57.3974 11.6312C57.3095 13.0304 57.8369 14.1673 58.8038 15.1293ZM62.4076 4.98479C64.2535 4.98479 65.7478 5.59696 67.0662 6.90874C68.2968 8.22053 69 9.70722 69 11.6312C69 13.4677 68.3847 15.0418 67.0662 16.3536C65.8357 17.6654 64.2535 18.2776 62.4076 18.2776C60.1223 18.2776 58.4522 17.3156 57.3096 15.4791V23H55.6395V5.3346H57.3096V7.78327C58.4522 5.94677 60.2102 4.98479 62.4076 4.98479ZM50.4535 5.3346H52.1236V17.9278H50.4535V16.0038C49.4866 17.4905 48.0802 18.2776 46.2344 18.2776C44.7401 18.2776 43.5096 17.8403 42.6306 16.8783C41.7516 15.9163 41.3121 14.692 41.3121 13.1179V5.42205H42.9822V13.1179C42.9822 14.2548 43.2459 15.1293 43.8611 15.7414C44.4764 16.3536 45.2675 16.7034 46.4102 16.7034C47.6408 16.7034 48.6076 16.3536 49.3987 15.5665C50.1898 14.7795 50.5414 13.6426 50.5414 12.0684V5.3346H50.4535ZM28.9185 15.1293C29.8853 16.0913 31.028 16.616 32.4344 16.616C33.8408 16.616 34.9834 16.0913 35.9503 15.1293C36.9172 14.1673 37.3567 12.943 37.3567 11.6312C37.3567 10.2319 36.9172 9.09506 35.9503 8.13308C34.9834 7.1711 33.8408 6.64639 32.4344 6.64639C31.028 6.64639 29.8853 7.1711 28.9185 8.13308C27.9516 9.09506 27.5121 10.3194 27.5121 11.6312C27.4242 13.0304 27.9516 14.1673 28.9185 15.1293ZM37.1809 16.2662C35.8624 17.4905 34.2803 18.1901 32.4344 18.1901C30.5885 18.1901 29.0064 17.5779 27.6879 16.2662C26.3694 15.0418 25.7541 13.4677 25.7541 11.5437C25.7541 9.70722 26.3694 8.13308 27.6879 6.82129C29.0064 5.59696 30.5885 4.89734 32.4344 4.89734C34.2803 4.89734 35.8624 5.5095 37.1809 6.82129C38.4994 8.04563 39.1146 9.61977 39.1146 11.5437C39.1146 13.4677 38.4115 15.0418 37.1809 16.2662ZM21.6229 7.43346C22.414 5.94677 23.7325 5.15969 25.5783 5.15969V6.73384C24.4357 6.73384 23.4688 7.08365 22.6777 7.78327C21.8866 8.48289 21.535 9.53232 21.535 10.9316V17.9278H19.865V5.3346H21.535V7.43346H21.6229ZM18.0191 9.53232V10.4068C18.0191 12.5932 17.228 14.4297 15.6459 15.9164C14.0637 17.403 11.9541 18.1901 9.31719 18.1901C6.59235 18.1901 4.3949 17.3156 2.63694 15.5665C0.878981 13.8175 0 11.6312 0 9.09505C0 6.55893 0.878981 4.37262 2.63694 2.62357C4.3949 0.874525 6.59235 0 9.31719 0C10.9873 0 12.4815 0.43726 13.8 1.22433C15.2064 2.0114 16.2611 3.06084 16.9643 4.37262L15.3822 5.24715C14.8548 4.19772 13.9758 3.32319 12.921 2.71103C11.8662 2.09886 10.6357 1.74905 9.31719 1.74905C7.11974 1.74905 5.27389 2.44867 3.86752 3.84791C2.46115 5.24715 1.75796 6.9962 1.75796 9.09505C1.75796 11.1939 2.46115 12.943 3.86752 14.3422C5.27389 15.7414 7.03185 16.4411 9.31719 16.4411C11.3389 16.4411 12.921 15.9163 14.0637 14.9544C15.2943 13.9924 15.9096 12.6806 16.0854 11.1065H9.0535V9.44487H18.0191V9.53232Z" fill="#202020"/>
</svg>
