<svg width="16" height="14" viewBox="0 0 16 14" xmlns="http://www.w3.org/2000/svg">
<path d="M8.59068 12.5131C8.36744 12.6716 8.17088 12.8076 8.00918 12.9177C7.84909 12.8078 7.65474 12.6724 7.43405 12.5146C6.78445 12.0504 5.91197 11.3968 5.01603 10.6376C4.11726 9.87602 3.21172 9.02221 2.48593 8.15852C1.74721 7.27945 1.2585 6.46436 1.09291 5.78027L1.08531 5.74888L1.07548 5.71811C0.958851 5.35306 0.899874 4.97378 0.900195 4.59277H0.900242L0.900156 4.58359C0.894126 3.93899 1.06305 3.30216 1.39275 2.73593C1.72187 2.17071 2.20077 1.69399 2.78539 1.35599C3.31086 1.06096 3.91006 0.902913 4.52267 0.900008C5.06394 0.898838 5.5969 1.01888 6.07918 1.24926C6.56163 1.47972 6.9787 1.81353 7.29935 2.22186L8.00719 3.12325L8.71503 2.22186C9.03451 1.81502 9.44973 1.48213 9.93001 1.25175C10.4097 1.02165 10.9398 0.900795 11.4786 0.900016C12.0907 0.90316 12.6894 1.0612 13.2145 1.356C13.8008 1.69498 14.2808 2.1735 14.6101 2.74084C14.9398 3.30919 15.1078 3.9483 15.0997 4.59479L15.0996 4.59478L15.0997 4.60677C15.1 4.98778 15.041 5.36705 14.9244 5.73211L14.912 5.77088L14.9031 5.8106C14.7537 6.48232 14.2792 7.28934 13.5457 8.16581C12.8257 9.02602 11.9209 9.87766 11.0197 10.6382C10.1215 11.3962 9.24442 12.0491 8.59068 12.5131Z"/>
</svg>
