<svg width="51" height="57" viewBox="0 0 51 57" fill="none" xmlns="http://www.w3.org/2000/svg">
<g clip-path="url(#clip0)">
<g filter="url(#filter0_f)">
<path d="M25.9335 47.3796C25.9284 47.4873 25.8814 47.5891 25.8023 47.6635C25.7231 47.738 25.6179 47.7795 25.5085 47.7794C25.262 47.7794 25.075 47.6034 25.0665 47.3796C24.9432 44.724 23.5739 43.0065 20.9593 42.2269C12.3505 40.2085 5.94995 32.5763 5.94995 23.4706C5.94995 12.8225 14.7024 4.19116 25.5 4.19116C36.2975 4.19116 45.05 12.8225 45.05 23.4706C45.05 32.5763 38.6495 40.2085 30.0407 42.2269C27.4261 43.0065 26.0567 44.7249 25.9352 47.3796H25.9335Z" fill="#FC363B"/>
</g>
<path d="M25.9835 47.3796C25.9785 47.4873 25.9315 47.5891 25.8523 47.6635C25.7732 47.738 25.6679 47.7795 25.5585 47.7794C25.312 47.7794 25.125 47.6034 25.1165 47.3796C24.9933 44.724 23.6239 43.0065 21.0093 42.2269C12.4005 40.2085 6 32.5763 6 23.4706C6 12.8225 14.7525 4.19116 25.55 4.19116C36.3476 4.19116 45.1 12.8225 45.1 23.4706C45.1 32.5763 38.6995 40.2085 30.0907 42.2269C27.4761 43.0065 26.1067 44.7249 25.9852 47.3796H25.9835Z" fill="#FC363B"/>
<path fill-rule="evenodd" clip-rule="evenodd" d="M25.4209 26.9991C25.887 27.0096 26.3505 26.927 26.7842 26.7559C27.2179 26.5849 27.613 26.3289 27.9464 26.003C28.2798 25.6771 28.5448 25.2879 28.7257 24.8583C28.9066 24.4286 28.9999 23.9671 29 23.5009C29.0001 23.0347 28.9071 22.5731 28.7264 22.1434C28.5457 21.7136 28.2809 21.3243 27.9477 20.9982C27.6144 20.6722 27.2194 20.416 26.7858 20.2447C26.3522 20.0735 25.8887 19.9905 25.4226 20.0009C24.5081 20.0211 23.6379 20.3985 22.9982 21.0523C22.3585 21.7061 22.0002 22.5844 22 23.4991C21.9998 24.4138 22.3576 25.2923 22.997 25.9464C23.6364 26.6006 24.5064 26.9784 25.4209 26.9991V26.9991Z" fill="white"/>
<path d="M25.5 56C24.1187 56 23 54.8813 23 53.5C23 52.1187 24.1187 51 25.5 51C26.8813 51 28 52.1187 28 53.5C28 54.8813 26.8813 56 25.5 56Z" fill="white"/>
<path fill-rule="evenodd" clip-rule="evenodd" d="M25.4661 54.9996C25.6658 55.0041 25.8645 54.9687 26.0504 54.8954C26.2362 54.8221 26.4056 54.7124 26.5485 54.5727C26.6914 54.4331 26.8049 54.2663 26.8824 54.0821C26.96 53.898 27 53.7002 27 53.5004C27 53.3006 26.9602 53.1028 26.8827 52.9186C26.8053 52.7344 26.6918 52.5675 26.549 52.4278C26.4062 52.2881 26.2369 52.1783 26.0511 52.1049C25.8652 52.0315 25.6666 51.9959 25.4668 52.0004C25.0749 52.009 24.702 52.1708 24.4278 52.451C24.1537 52.7312 24.0001 53.1076 24 53.4996C23.9999 53.8916 24.1533 54.2681 24.4273 54.5485C24.7013 54.8288 25.0742 54.9908 25.4661 54.9996V54.9996Z" fill="#FC363B"/>
</g>
<defs>
<filter id="filter0_f" x="-0.0500488" y="-1.80884" width="51.1" height="55.5882" filterUnits="userSpaceOnUse" color-interpolation-filters="sRGB">
<feFlood flood-opacity="0" result="BackgroundImageFix"/>
<feBlend mode="normal" in="SourceGraphic" in2="BackgroundImageFix" result="shape"/>
<feGaussianBlur stdDeviation="3" result="effect1_foregroundBlur"/>
</filter>
<clipPath id="clip0">
<rect width="51" height="57" fill="white"/>
</clipPath>
</defs>
</svg>
