<svg width="14" height="14" viewBox="0 0 14 14" fill="none" xmlns="http://www.w3.org/2000/svg">
<path d="M9.82932 0H4.17068C1.87096 0 0 1.87096 0 4.17068V9.82932C0 12.129 1.87096 14 4.17068 14H9.82932C12.129 14 14 12.129 14 9.82932V4.17068C14 1.87096 12.129 0 9.82932 0ZM12.5916 9.82932C12.5916 11.3549 11.3549 12.5916 9.82932 12.5916H4.17068C2.64513 12.5916 1.4084 11.3549 1.4084 9.82932V4.17068C1.4084 2.6451 2.64513 1.4084 4.17068 1.4084H9.82932C11.3549 1.4084 12.5916 2.6451 12.5916 4.17068V9.82932Z" fill="url(#paint0_linear)"/>
<path d="M9.82932 0H4.17068C1.87096 0 0 1.87096 0 4.17068V9.82932C0 12.129 1.87096 14 4.17068 14H9.82932C12.129 14 14 12.129 14 9.82932V4.17068C14 1.87096 12.129 0 9.82932 0ZM12.5916 9.82932C12.5916 11.3549 11.3549 12.5916 9.82932 12.5916H4.17068C2.64513 12.5916 1.4084 11.3549 1.4084 9.82932V4.17068C1.4084 2.6451 2.64513 1.4084 4.17068 1.4084H9.82932C11.3549 1.4084 12.5916 2.6451 12.5916 4.17068V9.82932Z" fill="#202020"/>
<path d="M7.00029 3.37909C5.00373 3.37909 3.37939 5.00342 3.37939 6.99996C3.37939 8.9965 5.00373 10.6209 7.00029 10.6209C8.99686 10.6209 10.6212 8.99653 10.6212 6.99996C10.6212 5.0034 8.99686 3.37909 7.00029 3.37909ZM7.00029 9.21249C5.77835 9.21249 4.78779 8.22193 4.78779 6.99999C4.78779 5.77805 5.77838 4.78749 7.00029 4.78749C8.22223 4.78749 9.21279 5.77805 9.21279 6.99999C9.21279 8.2219 8.22221 9.21249 7.00029 9.21249Z" fill="url(#paint1_linear)"/>
<path d="M7.00029 3.37909C5.00373 3.37909 3.37939 5.00342 3.37939 6.99996C3.37939 8.9965 5.00373 10.6209 7.00029 10.6209C8.99686 10.6209 10.6212 8.99653 10.6212 6.99996C10.6212 5.0034 8.99686 3.37909 7.00029 3.37909ZM7.00029 9.21249C5.77835 9.21249 4.78779 8.22193 4.78779 6.99999C4.78779 5.77805 5.77838 4.78749 7.00029 4.78749C8.22223 4.78749 9.21279 5.77805 9.21279 6.99999C9.21279 8.2219 8.22221 9.21249 7.00029 9.21249Z" fill="#202020"/>
<path d="M10.6279 4.27392C11.1071 4.27392 11.4955 3.88546 11.4955 3.40628C11.4955 2.92709 11.1071 2.53864 10.6279 2.53864C10.1487 2.53864 9.76025 2.92709 9.76025 3.40628C9.76025 3.88546 10.1487 4.27392 10.6279 4.27392Z" fill="url(#paint2_linear)"/>
<path d="M10.6279 4.27392C11.1071 4.27392 11.4955 3.88546 11.4955 3.40628C11.4955 2.92709 11.1071 2.53864 10.6279 2.53864C10.1487 2.53864 9.76025 2.92709 9.76025 3.40628C9.76025 3.88546 10.1487 4.27392 10.6279 4.27392Z" fill="#202020"/>
<defs>
<linearGradient id="paint0_linear" x1="7" y1="20.4538" x2="7" y2="-6.32236" gradientUnits="userSpaceOnUse">
<stop stop-color="#E09B3D"/>
<stop offset="0.3" stop-color="#C74C4D"/>
<stop offset="0.6" stop-color="#C21975"/>
<stop offset="1" stop-color="#7024C4"/>
</linearGradient>
<linearGradient id="paint1_linear" x1="7.00029" y1="13.9592" x2="7.00029" y2="0.108729" gradientUnits="userSpaceOnUse">
<stop stop-color="#E09B3D"/>
<stop offset="0.3" stop-color="#C74C4D"/>
<stop offset="0.6" stop-color="#C21975"/>
<stop offset="1" stop-color="#7024C4"/>
</linearGradient>
<linearGradient id="paint2_linear" x1="10.6279" y1="5.07387" x2="10.6279" y2="1.75499" gradientUnits="userSpaceOnUse">
<stop stop-color="#E09B3D"/>
<stop offset="0.3" stop-color="#C74C4D"/>
<stop offset="0.6" stop-color="#C21975"/>
<stop offset="1" stop-color="#7024C4"/>
</linearGradient>
</defs>
</svg>
