<svg width="448" height="79" viewBox="0 0 448 79" fill="none" xmlns="http://www.w3.org/2000/svg">
<path d="M412.887 52.1157C416.154 55.3817 420.016 57.1632 424.768 57.1632C429.521 57.1632 433.383 55.3817 436.65 52.1157C439.917 48.8496 441.403 44.6929 441.403 40.2392C441.403 35.4886 439.917 31.6288 436.65 28.3628C433.383 25.0967 429.521 23.3153 424.768 23.3153C420.016 23.3153 416.154 25.0967 412.887 28.3628C409.619 31.6288 408.134 35.7855 408.134 40.2392C407.837 44.9898 409.619 48.8496 412.887 52.1157ZM425.065 17.6739C431.303 17.6739 436.353 19.7523 440.809 24.206C444.967 28.6597 447.344 33.7072 447.344 40.2392C447.344 46.4743 445.264 51.8188 440.809 56.2724C436.65 60.7261 431.303 62.8045 425.065 62.8045C417.342 62.8045 411.699 59.5384 407.837 53.3033V78.8377H402.193V18.8616H407.837V27.1751C411.699 20.94 417.639 17.6739 425.065 17.6739ZM384.668 18.8616H390.312V61.6168H384.668V55.0848C381.4 60.1323 376.648 62.8045 370.41 62.8045C365.36 62.8045 361.202 61.3199 358.231 58.0539C355.261 54.7879 353.775 50.6311 353.775 45.2867V19.1585H359.419V45.2867C359.419 49.1465 360.31 52.1157 362.39 54.194C364.469 56.2724 367.142 57.4601 371.004 57.4601C375.162 57.4601 378.43 56.2724 381.103 53.6002C383.777 50.928 384.965 47.0682 384.965 41.7238V18.8616H384.668ZM311.893 52.1157C315.16 55.3817 319.022 57.1632 323.774 57.1632C328.527 57.1632 332.388 55.3817 335.656 52.1157C338.923 48.8496 340.409 44.6929 340.409 40.2392C340.409 35.4886 338.923 31.6288 335.656 28.3628C332.388 25.0967 328.527 23.3153 323.774 23.3153C319.022 23.3153 315.16 25.0967 311.893 28.3628C308.625 31.6288 307.14 35.7855 307.14 40.2392C306.843 44.9898 308.625 48.8496 311.893 52.1157ZM339.815 55.9755C335.359 60.1323 330.012 62.5076 323.774 62.5076C317.536 62.5076 312.19 60.4292 307.734 55.9755C303.278 51.8187 301.199 46.4743 301.199 39.9423C301.199 33.7072 303.278 28.3628 307.734 23.9091C312.19 19.7523 317.536 17.377 323.774 17.377C330.012 17.377 335.359 19.4554 339.815 23.9091C344.27 28.0658 346.349 33.4102 346.349 39.9423C346.349 46.4743 343.973 51.8187 339.815 55.9755ZM287.238 25.9875C289.912 20.94 294.367 18.2678 300.605 18.2678V23.6122C296.744 23.6122 293.476 24.7998 290.803 27.1751C288.129 29.5504 286.941 33.1133 286.941 37.8639V61.6168H281.297V18.8616H286.941V25.9875H287.238ZM275.06 33.1133V36.0824C275.06 43.5052 272.386 49.7404 267.039 54.7879C261.693 59.8354 254.564 62.5076 245.652 62.5076C236.444 62.5076 229.018 59.5384 223.077 53.6002C217.136 47.662 214.166 40.2392 214.166 31.6288C214.166 23.0183 217.136 15.5956 223.077 9.65734C229.018 3.71911 236.444 0.75 245.652 0.75C251.296 0.75 256.346 2.23455 260.802 4.90675C265.554 7.57895 269.119 11.1419 271.495 15.5956L266.148 18.5647C264.366 15.0017 261.396 12.0326 257.831 9.95425C254.267 7.87587 250.108 6.68823 245.652 6.68823C238.226 6.68823 231.989 9.06351 227.236 13.8141C222.483 18.5647 220.107 24.5029 220.107 31.6288C220.107 38.7546 222.483 44.6929 227.236 49.4435C231.989 54.194 237.929 56.5693 245.652 56.5693C252.484 56.5693 257.831 54.7879 261.693 51.5218C265.851 48.2558 267.931 43.8021 268.525 38.4577H244.761V32.8164H275.06V33.1133Z" fill="#202020"/>
<path d="M177.631 60.7261V3.71911L190.107 7.57896V61.023H177.631V60.7261ZM143.471 47.0682C145.253 48.8496 147.63 49.7404 150.303 49.7404C152.976 49.7404 155.353 48.8496 157.135 47.0682C158.917 45.2867 159.808 42.9114 159.808 39.9423C159.808 36.9732 158.917 34.5979 157.135 32.8164C155.353 31.035 152.976 30.1442 150.303 30.1442C147.63 30.1442 145.253 31.035 143.471 32.8164C141.689 34.5979 140.798 36.9732 140.798 39.9423C140.501 42.6145 141.392 44.9898 143.471 47.0682ZM166.046 55.6786C161.591 59.8354 156.541 62.2106 150.303 62.2106C144.065 62.2106 138.718 60.1323 134.56 55.6786C130.104 51.5218 128.025 46.1774 128.025 39.9423C128.025 33.7072 130.104 28.3627 134.56 24.206C139.015 20.0492 144.065 17.6739 150.303 17.6739C156.541 17.6739 161.888 19.7523 166.046 24.206C170.502 28.3627 172.581 33.7072 172.581 39.9423C172.581 46.1774 170.502 51.2249 166.046 55.6786ZM95.0533 47.0682C96.8355 48.8496 99.2118 49.7404 101.885 49.7404C104.559 49.7404 106.935 48.8496 108.717 47.0682C110.499 45.2867 111.391 42.9114 111.391 39.9423C111.391 36.9732 110.499 34.5979 108.717 32.8164C106.935 31.035 104.559 30.1442 101.885 30.1442C99.2118 30.1442 96.8355 31.035 95.0533 32.8164C93.271 34.5979 92.3799 36.9732 92.3799 39.9423C92.3799 42.6145 93.271 44.9898 95.0533 47.0682ZM117.925 55.6786C113.47 59.8354 108.42 62.2106 102.182 62.2106C95.9444 62.2106 90.5976 60.1323 86.4391 55.6786C81.9834 51.5218 79.9041 46.1774 79.9041 39.9423C79.9041 33.7072 81.9834 28.3627 86.4391 24.206C90.8947 20.0492 95.9444 17.6739 102.182 17.6739C108.42 17.6739 113.767 19.7523 117.925 24.206C122.381 28.3627 124.46 33.7072 124.46 39.9423C124.163 46.1774 122.084 51.2249 117.925 55.6786ZM75.4485 30.738H66.8343V45.5836C66.8343 47.3651 67.4284 48.2558 68.9136 48.8496C70.3988 49.4435 72.4781 49.4435 75.4485 49.1465V60.7261C67.4284 61.6168 61.7846 60.7261 58.8142 58.3508C55.8438 55.9755 54.0615 51.8187 54.0615 45.5836V30.738H47.2296V18.5647H54.0615V10.5481L66.8343 6.68823V18.5647H75.4485V30.738ZM23.7633 61.9137C17.8225 61.9137 12.7728 60.7261 8.6142 58.0539C4.45562 55.3817 1.78225 51.8188 0 47.3651L11.5846 40.5361C13.9609 45.8805 18.1195 48.8496 24.0604 48.8496C29.4071 48.8496 32.0805 47.3651 32.0805 44.099C32.0805 42.3176 31.1893 41.1299 29.4071 39.9423C27.6249 39.0516 24.3574 37.8639 19.6047 36.3794C17.2284 35.7855 14.8521 34.8948 13.0698 34.0041C11.2876 33.1133 9.50533 31.9257 7.72308 30.738C5.94083 29.2535 4.45562 27.7689 3.5645 25.6905C2.67337 23.6122 2.07929 21.2369 2.07929 18.5647C2.07929 13.2203 4.15858 8.7666 8.02012 5.50058C11.8817 2.23455 16.6343 0.75 21.9811 0.75C26.7337 0.75 31.1893 1.93765 34.7538 4.31294C38.6154 6.68823 41.2888 9.95425 43.6651 14.111L32.3775 20.6431C31.1893 18.2678 30.0012 16.7832 28.516 15.5956C27.0308 14.4079 24.9515 13.8141 22.2781 13.8141C20.1988 13.8141 18.7136 14.111 17.5254 15.0017C16.3373 15.8925 15.7432 16.7832 15.7432 18.2678C15.7432 19.7523 16.3373 20.94 17.8225 22.1276C19.3077 23.3153 21.9811 24.5029 26.4367 25.6905C28.813 26.2844 30.5953 26.8782 31.7834 27.472C32.9716 28.0658 34.7538 28.6597 36.8331 29.8473C38.9124 31.035 40.3976 31.9257 41.2888 33.1133C42.4769 34.301 43.368 35.7855 43.9621 37.567C44.8533 39.3485 45.1503 41.7238 45.1503 44.099C45.1503 49.7404 43.071 54.194 39.2095 57.4601C35.3479 60.4292 30.2982 61.9137 23.7633 61.9137Z" fill="#202020"/>
</svg>
