<svg width="14" height="15" viewBox="0 0 14 15" fill="none" xmlns="http://www.w3.org/2000/svg">
<path d="M12.7541 13.7872V12.3702C12.7473 11.6184 12.443 10.8995 11.907 10.3691C11.3709 9.83873 10.6463 9.53947 9.88987 9.53615H4.11006C3.73116 9.53109 3.35498 9.60047 3.00314 9.74032C2.6513 9.88016 2.33071 10.0877 2.0598 10.351C1.78888 10.6144 1.57298 10.9283 1.42448 11.2748C1.27597 11.6213 1.19781 11.9936 1.19446 12.3702V13.7872" stroke="#202020" stroke-width="1.8" stroke-linecap="square" stroke-linejoin="round"/>
<path d="M7.00006 6.70202C7.56401 6.70202 8.11529 6.53581 8.5842 6.2244C9.0531 5.91299 9.41858 5.47037 9.63439 4.95252C9.8502 4.43467 9.90667 3.86484 9.79665 3.31509C9.68662 2.76533 9.41506 2.26036 9.01629 1.86401C8.61752 1.46766 8.10945 1.19774 7.55634 1.08839C7.00322 0.97904 6.42991 1.03516 5.90889 1.24967C5.38787 1.46417 4.94254 1.82741 4.62923 2.29347C4.31591 2.75953 4.14868 3.30746 4.14868 3.86798C4.14868 4.24015 4.22243 4.60868 4.36573 4.95252C4.50902 5.29636 4.71906 5.60878 4.98383 5.87195C5.24861 6.13512 5.56294 6.34387 5.90889 6.48629C6.25483 6.62872 6.62561 6.70202 7.00006 6.70202V6.70202Z" stroke="#202020" stroke-width="1.8" stroke-linecap="round" stroke-linejoin="round"/>
</svg>
