<svg width="438" height="182" viewBox="0 0 438 182" fill="none" xmlns="http://www.w3.org/2000/svg">
<path d="M68.585 0C53.4397 0 38.9147 6.01646 28.2053 16.7258C17.4959 27.4352 11.4795 41.9602 11.4795 57.1055C11.5254 59.8374 11.7571 62.563 12.1729 65.2634C18.3923 59.9857 26.2871 57.0938 34.4441 57.1055C34.4441 50.3127 36.4584 43.6725 40.2322 38.0245C44.0061 32.3765 49.37 27.9745 55.6457 25.375C61.9214 22.7755 68.827 22.0953 75.4893 23.4205C82.1516 24.7458 88.2712 28.0168 93.0744 32.82C97.8777 37.6232 101.149 43.7429 102.474 50.4052C103.799 57.0674 103.119 63.973 100.519 70.2487C97.92 76.5244 93.5179 81.8884 87.8699 85.6622C82.222 89.4361 75.5817 91.4504 68.7889 91.4504C68.8006 99.6073 65.9088 107.502 60.631 113.722C63.3313 114.129 66.0582 114.333 68.7889 114.333C83.9343 114.333 98.4593 108.317 109.169 97.6076C119.878 86.8982 125.894 72.3732 125.894 57.2279C125.894 42.0826 119.878 27.5575 109.169 16.8482C98.4593 6.13882 83.9343 0.122369 68.7889 0.122369" fill="#5C6266"/>
<path d="M12.1741 65.2656C8.5545 68.3216 5.60707 72.0942 3.51754 76.3456C1.428 80.597 0.241644 85.2351 0.0332207 89.9677C-0.175203 94.7002 0.598823 99.4247 2.30653 103.843C4.01424 108.262 6.6186 112.279 9.95554 115.641C13.2925 119.004 17.2896 121.639 21.6952 123.38C26.1007 125.121 30.8192 125.931 35.5532 125.758C40.2872 125.586 44.9342 124.435 49.2013 122.378C53.4685 120.32 57.2633 117.402 60.3467 113.805C48.154 111.997 36.8737 106.293 28.1911 97.5437C19.5085 88.7949 13.8896 77.4716 12.1741 65.2656Z" fill="#FCD502"/>
<path d="M34.242 57.1055C26.1552 57.142 18.3407 60.0309 12.1748 65.2634C13.8904 77.4694 19.5092 88.7927 28.1918 97.5415C36.8745 106.29 48.1548 111.995 60.3474 113.803C65.6251 107.584 68.517 99.6889 68.5053 91.5319C63.9951 91.5212 59.5311 90.6223 55.3683 88.8864C51.2055 87.1505 47.4253 84.6117 44.2437 81.4149C41.062 78.2181 38.5412 74.4259 36.8251 70.2549C35.109 66.0839 34.2313 61.6157 34.242 57.1055Z" fill="#A6ACB0"/>
<path d="M68.5861 91.5319V57.1055H34.2412C34.2412 66.2143 37.8597 74.9501 44.3006 81.391C50.7415 87.8319 59.4773 91.4504 68.5861 91.4504" fill="#FCD502"/>
<path d="M171.051 66.4875V80.7639H188.427V89.9416H171.051V114.334H160.16V57.1875H190.263V66.4875H171.051Z" fill="#5C6266"/>
<path d="M218.202 80.1519C216.623 79.7073 214.989 79.4876 213.348 79.4993C211.527 79.4662 209.716 79.7705 208.005 80.3966V114.211H197.277V73.9111C202.815 71.8159 208.693 70.7648 214.613 70.8111C216.47 70.7935 218.326 70.93 220.16 71.219L218.202 80.1519Z" fill="#5C6266"/>
<path d="M242.882 79.253C237.212 79.253 234.357 84.3925 234.357 92.9176C234.357 101.443 237.212 106.501 242.882 106.501C248.551 106.501 251.407 101.443 251.407 92.9176C251.407 84.3925 248.592 79.253 242.882 79.253ZM242.882 115.27C230.645 115.27 223.629 105.726 223.629 92.9991C223.629 80.2728 230.482 70.8096 242.882 70.8096C255.282 70.8096 262.175 80.3136 262.175 92.9991C262.175 105.685 255.282 115.27 242.882 115.27Z" fill="#5C6266"/>
<path d="M294.928 114.212V86.312C294.987 85.3377 294.828 84.3626 294.462 83.4575C294.097 82.5524 293.534 81.7402 292.815 81.08C292.096 80.4197 291.239 79.928 290.306 79.6406C289.374 79.3532 288.388 79.2773 287.423 79.4186C285.247 79.4076 283.084 79.7521 281.019 80.4383V114.212H270.291V73.912C275.687 71.7674 281.454 70.7138 287.26 70.8119C299.904 70.8119 305.737 76.033 305.737 85.2107V114.212H294.928Z" fill="#5C6266"/>
<path d="M329.638 114.945C321.48 114.945 317.401 110.458 317.401 101.525V79.8253H312.099V71.6674H317.564V62.2858L328.129 59.2266V71.7898H336.287V79.9477H328.129V100.954C328.02 101.611 328.074 102.285 328.286 102.917C328.498 103.548 328.861 104.118 329.344 104.577C329.827 105.035 330.415 105.369 331.056 105.548C331.698 105.727 332.373 105.746 333.024 105.604C334.085 105.584 335.134 105.377 336.124 104.993V113.885C334.065 114.716 331.858 115.119 329.638 115.068" fill="#5C6266"/>
<path d="M343.915 71.7889H354.806V114.21H343.915V71.7889ZM349.3 64.977C348.162 64.9133 347.068 64.5178 346.153 63.8393C345.237 63.1609 344.541 62.2293 344.149 61.1594C343.757 60.0896 343.687 58.9284 343.948 57.8192C344.208 56.7101 344.788 55.7015 345.615 54.9181C346.442 54.1346 347.481 53.6106 348.603 53.4108C349.724 53.2109 350.88 53.3439 351.927 53.7934C352.974 54.2428 353.866 54.9891 354.494 55.94C355.122 56.8909 355.457 58.0047 355.459 59.1441C355.438 59.9316 355.262 60.7072 354.941 61.4266C354.619 62.1461 354.16 62.7952 353.588 63.3368C353.016 63.8785 352.343 64.3022 351.607 64.5836C350.871 64.8651 350.087 64.9987 349.3 64.977Z" fill="#5C6266"/>
<path d="M382.461 78.6412C376.873 78.6412 372.917 82.7201 372.753 90.8781L390.578 88.4307C390.578 82.0267 387.438 78.8043 382.421 78.8043L382.461 78.6412ZM400.857 93.8149L373.447 97.5268C373.804 100.311 375.239 102.844 377.443 104.583C379.646 106.322 382.444 107.127 385.235 106.827C389.331 106.837 393.376 105.916 397.064 104.135L400.164 112.293C395.193 114.422 389.825 115.465 384.419 115.352C370.388 115.27 362.964 106.052 362.964 92.9991C362.964 79.9464 370.306 70.8096 382.706 70.8096C394.453 70.8096 401.021 78.5596 401.021 90.1847C401.1 91.3934 401.1 92.6061 401.021 93.8149" fill="#5C6266"/>
<path d="M430.065 80.1519C428.499 79.7074 426.879 79.4877 425.252 79.4993C423.417 79.4668 421.592 79.771 419.867 80.3967V114.211H409.14V73.9111C414.691 71.8164 420.582 70.7654 426.516 70.8111C428.36 70.7934 430.202 70.9298 432.023 71.219L430.065 80.1519Z" fill="#5C6266"/>
<path d="M192.219 171.317L188.996 145.62C188.752 143.662 188.548 141.541 188.548 141.541C188.548 141.541 188.099 143.784 187.528 145.62L179.411 171.317H176.392L168.479 145.62C167.908 143.662 167.419 141.541 167.419 141.541C167.419 141.541 167.419 143.784 167.052 145.62L163.788 171.317H159.954L164.482 137.054H169.336L176.923 161.528C177.494 163.404 177.942 165.606 177.942 165.606C177.942 165.606 178.35 163.363 178.921 161.528L186.508 137.054H191.648L196.053 171.317H192.219Z" fill="#5C6266"/>
<path d="M228.561 171.317H224.279L218.446 147.251C217.915 145.048 217.589 142.601 217.589 142.601C217.589 142.601 217.263 145.048 216.733 147.251L210.655 171.317H206.576L197.888 137.054H201.967L207.963 162.139C208.452 164.179 208.819 166.708 208.819 166.708C208.819 166.708 209.227 164.179 209.676 162.139L215.794 137.217H219.384L225.502 162.139C225.951 164.179 226.359 166.708 226.359 166.708C226.359 166.708 226.726 164.179 227.215 162.139L233.089 137.217H237.168L228.561 171.317Z" fill="#5C6266"/>
<path d="M249.977 140.195C248.285 140.147 246.598 140.409 245.001 140.97V167.687C246.59 168.282 248.281 168.559 249.977 168.503C255.81 168.503 260.501 164.22 260.501 154.349C260.501 144.478 255.81 140.195 249.977 140.195ZM249.977 171.97C246.902 172.053 243.848 171.44 241.044 170.175V138.686C243.854 137.441 246.904 136.829 249.977 136.891C258.543 136.891 264.784 142.765 264.784 154.553C264.784 166.341 258.543 172.174 249.977 172.174" fill="#5C6266"/>
<path d="M286.852 171.97C284.031 172.01 281.239 171.395 278.694 170.175L280.081 166.627C282.15 167.698 284.441 168.271 286.771 168.299C291.135 168.299 294.194 166.137 294.194 162.344C294.194 158.55 291.176 157.286 287.954 155.858C283.875 153.941 279.021 151.575 279.021 145.946C279.028 144.622 279.316 143.315 279.864 142.11C280.413 140.905 281.211 139.83 282.205 138.955C283.199 138.081 284.367 137.426 285.632 137.036C286.897 136.645 288.23 136.526 289.544 136.687C292.147 136.617 294.722 137.236 297.009 138.482L295.622 141.826C293.755 140.811 291.669 140.265 289.544 140.236C285.71 140.236 282.977 142.275 282.977 145.783C282.977 149.291 286.404 150.923 289.544 152.35C293.623 154.145 298.151 156.429 298.151 162.14C298.151 167.85 293.542 171.97 286.73 171.97" fill="#5C6266"/>
<path d="M309 181.635H304.921L308.714 171.316L299.129 145.781H303.453L309.938 164.504C310.302 165.711 310.602 166.936 310.836 168.175C311.047 166.931 311.347 165.705 311.733 164.504L318.096 145.944H322.175L309 181.635Z" fill="#5C6266"/>
<path d="M331.189 171.97C328.568 171.965 325.985 171.35 323.643 170.175L325.029 167.238C326.919 168.238 329.011 168.796 331.148 168.87C334.411 168.87 336.614 167.238 336.614 164.791C336.614 162.343 334.411 161.038 331.433 159.937C328.456 158.835 324.295 157 324.295 152.431C324.295 147.863 327.354 145.538 332.779 145.538C335.268 145.498 337.72 146.132 339.877 147.373L338.49 150.147C336.872 149.184 335.029 148.663 333.147 148.638C330.047 148.638 328.333 150.269 328.333 152.431C328.333 154.593 330.414 156.062 333.228 157.122C337.022 158.509 340.733 159.977 340.733 164.791C340.733 169.604 337.226 172.092 331.189 172.092" fill="#5C6266"/>
<path d="M352.93 171.767C352.005 171.861 351.071 171.745 350.197 171.427C349.324 171.108 348.534 170.596 347.886 169.929C347.239 169.262 346.75 168.457 346.458 167.574C346.166 166.692 346.078 165.754 346.2 164.833V148.925H342.569V145.947H346.24V139.788L350.075 138.523V145.947H355.581V148.925H350.034V164.67C349.999 165.171 350.076 165.675 350.26 166.143C350.444 166.611 350.73 167.032 351.097 167.376C351.465 167.72 351.904 167.977 352.383 168.13C352.862 168.283 353.37 168.327 353.868 168.259C354.434 168.256 354.997 168.174 355.54 168.014V171.318C354.708 171.636 353.821 171.789 352.93 171.767Z" fill="#5C6266"/>
<path d="M368.596 148.473C364.109 148.473 361.213 152.063 361.131 157.814L375.204 155.856C375.204 150.839 372.593 148.473 368.759 148.473H368.596ZM378.956 158.059L361.539 160.588C361.538 161.694 361.761 162.79 362.197 163.807C362.632 164.824 363.27 165.742 364.071 166.505C364.872 167.269 365.82 167.861 366.858 168.246C367.895 168.631 369 168.801 370.105 168.746C372.509 168.769 374.885 168.224 377.039 167.155L378.304 170.133C375.686 171.392 372.805 172.007 369.901 171.927C362.273 171.927 357.664 167.033 357.664 158.63C357.664 150.227 361.743 145.373 368.8 145.373C370.22 145.303 371.638 145.544 372.955 146.08C374.271 146.616 375.455 147.433 376.423 148.474C377.391 149.516 378.119 150.757 378.556 152.109C378.994 153.462 379.13 154.894 378.956 156.305C378.956 156.835 378.956 157.406 378.956 158.018" fill="#5C6266"/>
<path d="M412.934 171.317V153.9C412.96 153.177 412.832 152.457 412.558 151.788C412.285 151.118 411.872 150.515 411.347 150.017C410.823 149.52 410.198 149.139 409.515 148.901C408.832 148.664 408.107 148.574 407.386 148.638C406.359 148.599 405.336 148.774 404.38 149.154C403.425 149.533 402.559 150.107 401.839 150.841V171.317H397.76V153.288C397.76 150.392 395.354 148.638 391.805 148.638C390.078 148.628 388.365 148.932 386.747 149.535V171.317H382.668V147.251C385.451 146.05 388.448 145.426 391.479 145.415C392.969 145.295 394.468 145.494 395.875 146.001C397.282 146.508 398.565 147.309 399.636 148.352C401.925 146.443 404.814 145.402 407.794 145.415C408.918 145.304 410.052 145.435 411.121 145.798C412.189 146.161 413.168 146.749 413.991 147.521C414.814 148.294 415.462 149.234 415.892 150.278C416.322 151.322 416.523 152.445 416.483 153.573V171.317H412.934Z" fill="#5C6266"/>
<path d="M427.982 171.97C425.349 171.959 422.754 171.346 420.396 170.175L421.823 167.156C423.713 168.157 425.805 168.715 427.942 168.788C431.205 168.788 433.367 167.156 433.367 164.709C433.367 162.262 431.205 160.956 428.227 159.855C425.249 158.754 421.089 156.918 421.089 152.35C421.089 147.781 424.148 145.456 429.532 145.456C432.034 145.411 434.501 146.046 436.671 147.292L435.284 150.066C433.664 149.108 431.822 148.587 429.94 148.556C426.84 148.556 425.086 150.188 425.086 152.35C425.086 154.512 427.167 155.98 430.022 157.041C433.815 158.427 437.486 159.896 437.486 164.709C437.486 169.522 434.019 172.01 427.982 172.01" fill="#5C6266"/>
</svg>
