<svg width="15" height="12" viewBox="0 0 15 12" fill="none" xmlns="http://www.w3.org/2000/svg">
<path fill-rule="evenodd" clip-rule="evenodd" d="M2 6C2 3.79086 3.79086 2 6 2C7.67338 2 9.10677 3.02756 9.70359 4.48612L7.13632 3.55775L6.45619 5.43856L11.1582 7.13888L12.0986 7.47894L12.4387 6.53854L14.139 1.83653L12.2582 1.1564L11.4305 3.44526C10.471 1.40917 8.40005 0 6 0C2.68629 0 0 2.68629 0 6C0 9.31371 2.68629 12 6 12C7.67823 12 9.19703 11.3097 10.2848 10.2L8.85662 8.79996C8.12949 9.54169 7.11917 10 6 10C3.79086 10 2 8.20914 2 6Z" fill="#202020"/>
</svg>
