<svg width="57" height="18" viewBox="0 0 57 18" fill="none" xmlns="http://www.w3.org/2000/svg">
<path d="M53.2594 17.5652V0.869565L57 2V17.6522H53.2594V17.5652ZM43.0172 13.5652C43.5516 14.087 44.2641 14.3478 45.0656 14.3478C45.8672 14.3478 46.5797 14.087 47.1141 13.5652C47.6484 13.0435 47.9156 12.3478 47.9156 11.4783C47.9156 10.6087 47.6484 9.91304 47.1141 9.3913C46.5797 8.86956 45.8672 8.60869 45.0656 8.60869C44.2641 8.60869 43.5516 8.86956 43.0172 9.3913C42.4828 9.91304 42.2156 10.6087 42.2156 11.4783C42.1266 12.2609 42.3937 12.9565 43.0172 13.5652ZM49.7859 16.087C48.45 17.3043 46.9359 18 45.0656 18C43.1953 18 41.5922 17.3913 40.3453 16.087C39.0094 14.8696 38.3859 13.3043 38.3859 11.4783C38.3859 9.65217 39.0094 8.08695 40.3453 6.86956C41.6812 5.65217 43.1953 4.95652 45.0656 4.95652C46.9359 4.95652 48.5391 5.56522 49.7859 6.86956C51.1219 8.08695 51.7453 9.65217 51.7453 11.4783C51.7453 13.3043 51.1219 14.7826 49.7859 16.087ZM28.5 13.5652C29.0344 14.087 29.7469 14.3478 30.5484 14.3478C31.35 14.3478 32.0625 14.087 32.5969 13.5652C33.1312 13.0435 33.3984 12.3478 33.3984 11.4783C33.3984 10.6087 33.1312 9.91304 32.5969 9.3913C32.0625 8.86956 31.35 8.60869 30.5484 8.60869C29.7469 8.60869 29.0344 8.86956 28.5 9.3913C27.9656 9.91304 27.6984 10.6087 27.6984 11.4783C27.6984 12.2609 27.9656 12.9565 28.5 13.5652ZM35.3578 16.087C34.0219 17.3043 32.5078 18 30.6375 18C28.7672 18 27.1641 17.3913 25.9172 16.087C24.5813 14.8696 23.9578 13.3043 23.9578 11.4783C23.9578 9.65217 24.5813 8.08695 25.9172 6.86956C27.2531 5.65217 28.7672 4.95652 30.6375 4.95652C32.5078 4.95652 34.1109 5.56522 35.3578 6.86956C36.6938 8.08695 37.3172 9.65217 37.3172 11.4783C37.2281 13.3043 36.6047 14.7826 35.3578 16.087ZM22.6219 8.78261H20.0391V13.1304C20.0391 13.6522 20.2172 13.913 20.6625 14.087C21.1078 14.2609 21.7312 14.2609 22.6219 14.1739V17.5652C20.2172 17.8261 18.525 17.5652 17.6344 16.8696C16.7437 16.1739 16.2094 14.9565 16.2094 13.1304V8.78261H14.1609V5.21739H16.2094V2.86956L20.0391 1.73913V5.21739H22.6219V8.78261ZM7.125 17.913C5.34375 17.913 3.82969 17.5652 2.58281 16.7826C1.33594 16 0.534375 14.9565 0 13.6522L3.47344 11.6522C4.18594 13.2174 5.43281 14.087 7.21406 14.087C8.81719 14.087 9.61875 13.6522 9.61875 12.6957C9.61875 12.1739 9.35156 11.8261 8.81719 11.4783C8.28281 11.2174 7.30312 10.8696 5.87812 10.4348C5.16563 10.2609 4.45312 10 3.91875 9.73913C3.38438 9.47826 2.85 9.13043 2.31562 8.78261C1.78125 8.34782 1.33594 7.91304 1.06875 7.30435C0.801563 6.69565 0.623437 6 0.623437 5.21739C0.623437 3.65217 1.24688 2.34782 2.40469 1.3913C3.5625 0.434781 4.9875 0 6.59063 0C8.01562 0 9.35156 0.347827 10.4203 1.04348C11.5781 1.73913 12.3797 2.69565 13.0922 3.91304L9.70781 5.82609C9.35156 5.13044 8.99531 4.69565 8.55 4.34783C8.10469 4 7.48125 3.82608 6.67969 3.82608C6.05625 3.82608 5.61094 3.91304 5.25469 4.17391C4.89844 4.43478 4.72031 4.69565 4.72031 5.13043C4.72031 5.56522 4.89844 5.91304 5.34375 6.26087C5.78906 6.6087 6.59062 6.95652 7.92656 7.30435C8.63906 7.47826 9.17344 7.65217 9.52969 7.82609C9.88594 8 10.4203 8.17391 11.0437 8.52174C11.6672 8.86956 12.1125 9.13043 12.3797 9.47826C12.7359 9.82609 13.0031 10.2609 13.1813 10.7826C13.4484 11.3043 13.5375 12 13.5375 12.6957C13.5375 14.3478 12.9141 15.6522 11.7562 16.6087C10.5984 17.4783 9.08438 17.913 7.125 17.913Z" fill="#202020"/>
</svg>
