<svg width="15" height="9" viewBox="0 0 15 9" fill="none" xmlns="http://www.w3.org/2000/svg">
<path d="M12.9096 5.72264C13.4072 6.23771 13.9323 6.72228 14.3786 7.28928C14.5757 7.54125 14.7624 7.80124 14.9052 8.09366C15.1075 8.50932 14.9242 8.96674 14.5727 8.99156L12.3874 8.9905C11.8238 9.04008 11.3742 8.79954 10.9962 8.39095C10.6936 8.06421 10.4134 7.71647 10.1225 7.37871C10.0032 7.24067 9.87841 7.11077 9.72929 7.00808C9.43099 6.80279 9.17203 6.86563 9.00155 7.1955C8.82794 7.53103 8.78854 7.90253 8.77149 8.27645C8.74808 8.82202 8.59254 8.96547 8.07566 8.99044C6.97102 9.04567 5.92266 8.86849 4.94875 8.27767C4.09012 7.75682 3.42432 7.0215 2.84477 6.18907C1.71646 4.56817 0.852356 2.78702 0.075756 0.95599C-0.099058 0.543458 0.0287932 0.322018 0.458109 0.314159C1.17099 0.299467 1.88378 0.300523 2.59751 0.313103C2.88725 0.317607 3.07906 0.49379 3.19094 0.784001C3.57664 1.7895 4.04858 2.74614 4.64096 3.63287C4.79872 3.86894 4.95959 4.10504 5.18863 4.27119C5.44205 4.45517 5.635 4.39419 5.75421 4.09488C5.82985 3.90509 5.86299 3.70068 5.88004 3.49744C5.93652 2.79814 5.94396 2.10003 5.84491 1.40319C5.78409 0.96829 5.55306 0.686746 5.14375 0.604463C4.93489 0.562499 4.96598 0.480092 5.06711 0.353701C5.24274 0.135709 5.40795 0 5.73727 0H8.20694C8.59573 0.0813509 8.68207 0.266542 8.7353 0.68131L8.73741 3.58985C8.73317 3.7504 8.81306 4.22692 9.08584 4.33319C9.30416 4.40885 9.44807 4.22366 9.57908 4.0769C10.1704 3.41152 10.5924 2.62516 10.9694 1.8109C11.1367 1.45285 11.2806 1.08104 11.42 0.709514C11.5233 0.43384 11.6854 0.298194 11.9783 0.304188L14.3552 0.306425C14.4257 0.306425 14.497 0.307512 14.5653 0.319906C14.9658 0.39228 15.0756 0.574954 14.9518 0.98963C14.7569 1.64022 14.3777 2.1824 14.0069 2.72707C13.6105 3.30858 13.1865 3.87021 12.7935 4.45517C12.4323 4.98943 12.461 5.25867 12.9096 5.72264Z" fill="#202020"/>
</svg>
