<svg width="20" height="20" viewBox="0 0 20 20" xmlns="http://www.w3.org/2000/svg">
<g>
<path d="M9.51504 0.0115967C4.23306 0.263094 0.0648331 4.66196 0.0808566 9.94992C0.0857354 11.5605 0.474557 13.0807 1.16046 14.4239L0.107355 19.5358C0.050388 19.8123 0.299781 20.0544 0.574477 19.9894L5.58353 18.8026C6.87044 19.4436 8.3159 19.8139 9.84569 19.8372C15.2444 19.9197 19.7459 15.633 19.9142 10.2363C20.0946 4.45145 15.3201 -0.264869 9.51504 0.0115967ZM15.4919 15.4112C14.025 16.8781 12.0745 17.686 10 17.686C8.78527 17.686 7.6223 17.4134 6.54327 16.876L5.84569 16.5285L2.77463 17.2561L3.42107 14.118L3.0774 13.445C2.51725 12.348 2.23322 11.1617 2.23322 9.91921C2.23322 7.84462 3.0411 5.89424 4.50804 4.42725C5.96188 2.97341 7.94411 2.15239 10.0001 2.15239C12.0747 2.15244 14.025 2.96031 15.492 4.4272C16.9589 5.89415 17.7668 7.84452 17.7668 9.91907C17.7668 11.9751 16.9457 13.9574 15.4919 15.4112Z" fill="#202020"/>
<path d="M14.8139 12.0704L12.8926 11.5187C12.64 11.4462 12.368 11.5178 12.1839 11.7054L11.7141 12.1841C11.516 12.3859 11.2153 12.4508 10.9531 12.3447C10.0442 11.9769 8.13232 10.2769 7.64405 9.42663C7.50319 9.18135 7.52648 8.8747 7.69944 8.6509L8.10964 8.12021C8.27036 7.91228 8.30427 7.63304 8.19799 7.39269L7.38964 5.56443C7.19602 5.12653 6.63644 4.99906 6.27086 5.30824C5.73462 5.76178 5.09837 6.45098 5.02102 7.21452C4.88466 8.56069 5.46198 10.2576 7.64515 12.2953C10.1673 14.6493 12.187 14.9603 13.5021 14.6417C14.2479 14.4611 14.844 13.7368 15.2202 13.1438C15.4767 12.7395 15.2742 12.2025 14.8139 12.0704Z" fill="#202020"/>
</g>
<defs>
<clipPath id="clip0">
<rect width="20" height="20" fill="white"/>
</clipPath>
</defs>
</svg>
